<svg version="1.2" xmlns="http://www.w3.org/2000/svg" viewBox="0 0 92 55" width="92" height="55">
	<title>logga</title>
	<style>
		.s0 { fill: #ffffff } 
	</style>
	<path id="MULTI" class="s0" aria-label="MULTI"  d="m-0.3 34v-33.6h26.7v33.6zm24.7-4.6v-24.7l0.1-0.1h-5.7v0.1l-5.8 16.7-5.8-16.8h-5.7v24.8h5.6v-8.9l3.1 8.9h5.6l3-8.6v8.6zm1.3-28.9h22.4v33.5h-22.4zm20.8 19.2v-15h-5.6v14.9q0 0.9-0.4 1.7-0.3 0.8-0.8 1.4-0.6 0.6-1.3 1-0.7 0.3-1.5 0.3-0.9 0-1.6-0.3-0.8-0.4-1.3-1-0.5-0.6-0.9-1.4-0.3-0.8-0.3-1.7v-14.9h-5.6v15q0.1 2 0.7 3.8 0.8 1.7 2.1 3.1 1.4 1.4 3.1 2.2 1.8 0.8 3.7 0.8h0.1q1.9 0 3.6-0.8 1.8-0.8 3.2-2.2 1.3-1.4 2-3.1 0.7-1.8 0.8-3.8zm0.6 14.4v-33.6h17.1v33.6zm2-4.6h13.5v-5.6h-7.9v-19.2h-5.6zm14.1 4.6v-33.6h19.8v33.6zm12.6-23.8h5.6v-5.6h-16.9v5.6h5.7v19.2h5.6zm6.4 23.8v-33.6h9.5v33.6zm1.9-4.6h5.6v-24.8h-5.6z"/>
	<path id="VERSITETET" class="s0" aria-label="VERSITETET"  d="m5.6 34.5h-2.6l-2.3 16.5c-0.3 2.2 0.3 3.3 2.1 3.3 1.3 0 2.1-0.8 2.8-2.7l6.3-17.1h-2.6l-5.9 16.3c0 0.1-0.1 0.2-0.1 0.2-0.1 0-0.1-0.1-0.1-0.2zm11.8 2.5h3.4l0.7-2.5h-4.2c-2.1 0-3.4 0.8-3.8 2.5l-1.5 5.5h-1.6l-0.7 2.5h1.6l-1.2 4.6c-0.8 2.9 0.3 4.3 3.2 4.3h3l0.6-2.4h-3.1c-1.1 0-1.4-0.6-1.2-1.7l1.3-4.8h3.9l0.6-2.5h-3.8l1.1-4c0.2-1 0.8-1.5 1.7-1.5zm10-2.5h-3.5l-2.2 8h-1.6l-0.6 2.5h1.6l-2.4 8.9h2.6l2.4-8.9h1.5c0.8 0 1 0.5 0.7 1.7l-2 7.2h2.7l2-7.4c0.3-1.4-0.1-2.4-1.3-2.8 1.4-0.3 2.3-1.1 2.7-2.4l0.6-2.5c0.8-2.9-0.3-4.3-3.2-4.3zm0.6 4.1l-0.6 2.6c-0.3 0.9-0.8 1.3-1.5 1.3h-1.6l1.5-5.6h1c1.1 0 1.5 0.6 1.2 1.7zm8.9-4.4c-2 0-3.4 1-3.9 2.7l-1 3.7c-0.5 1.9 0.1 3.2 1.7 3.9l1.1 0.6c0.7 0.4 1 1 0.8 2l-0.9 3.4c-0.2 0.8-0.7 1.1-1.5 1.1-1 0-1.3-0.5-1.1-1.4l0.4-1.8h-2.6l-0.4 1.5c-0.6 2.9 0.6 4.3 3.6 4.3 2.1 0 3.5-1.1 4-3.2l1.1-3.9c0.5-2 0-3.3-1.5-4.1l-1.1-0.6c-0.9-0.4-1.2-1-0.9-1.9l0.7-2.6c0.2-0.7 0.7-1.1 1.4-1.1 0.9 0 1.3 0.5 1.1 1.4l-0.3 1.3h2.6l0.3-1c0.6-2.7-0.7-4.3-3.6-4.3zm9.3 0.3h-2.6l-5.2 19.4h2.6zm9.4 0h-7.8l-0.7 2.5h2.7l-4.6 17h2.6l4.6-17h2.6zm5.3 2.6h3.3l0.7-2.6h-4.1c-2.1 0-3.4 0.9-3.9 2.5l-1.4 5.5h-1.6l-0.7 2.5h1.6l-1.3 4.7c-0.7 2.9 0.4 4.3 3.3 4.3h2.9l0.7-2.5h-3.1c-1.1 0-1.5-0.5-1.2-1.7l1.3-4.8h3.8l0.7-2.5h-3.8l1-4c0.3-0.9 0.9-1.4 1.8-1.4zm12.7-2.6h-7.8l-0.7 2.5h2.6l-4.5 17h2.6l4.5-17h2.7zm5.2 2.6h3.4l0.7-2.6h-4.1c-2.2 0-3.4 0.8-3.9 2.5l-1.5 5.5h-1.6l-0.6 2.5h1.6l-1.3 4.6c-0.8 2.9 0.3 4.4 3.2 4.4h3l0.7-2.5h-3.1c-1.1 0-1.5-0.6-1.2-1.7l1.3-4.8h3.8l0.7-2.5h-3.9l1.1-4c0.3-1 0.8-1.4 1.7-1.4zm12.8-2.6h-7.9l-0.6 2.5h2.6l-4.5 17h2.6l4.5-17h2.6z"/>
</svg>